<svg version="1.1" id="Layer_1" xmlns="http://www.w3.org/2000/svg" xmlns:xlink="http://www.w3.org/1999/xlink" x="0px" y="0px"
	 width="100%" viewBox="0 0 500 500" enable-background="new 0 0 500 500" xml:space="preserve">
<path fill="none" opacity="1.000000" stroke="none" 
	d="
M242.000000,501.000000 
	C161.333359,501.000000 81.166702,501.000000 1.000043,501.000000 
	C1.000029,334.333405 1.000029,167.666779 1.000014,1.000133 
	C167.666565,1.000088 334.333130,1.000088 500.999756,1.000044 
	C500.999847,167.666519 500.999847,334.333038 500.999939,500.999786 
	C414.833344,501.000000 328.666656,501.000000 242.000000,501.000000 
M77.618698,230.708496 
	C78.470886,229.786560 79.180832,228.649719 80.197708,227.976562 
	C88.593086,222.418884 101.817429,223.936798 108.977768,233.645782 
	C111.123108,236.554733 112.641602,236.198395 114.891533,233.970383 
	C112.027267,227.315430 106.215218,224.646729 99.894783,223.069733 
	C93.533630,221.482605 86.953888,220.775208 80.586601,219.208252 
	C68.004143,216.111740 58.670513,207.443130 48.458649,200.210571 
	C45.070736,197.811066 45.099907,195.772720 46.198380,192.459213 
	C49.099655,183.707596 51.766266,174.877182 54.453472,166.055969 
	C56.058922,160.785782 54.510166,157.154785 49.907478,154.984436 
	C44.814602,152.582916 40.351517,155.026031 37.517220,162.039154 
	C32.885262,173.500351 28.346289,184.999756 23.855991,196.517303 
	C22.093882,201.037079 22.653389,205.074615 26.213230,208.815323 
	C30.993599,213.838623 35.299381,219.310516 40.003586,224.410263 
	C43.991779,228.733810 47.516666,234.445465 55.027706,231.049133 
	C55.719776,230.736176 56.694153,230.883057 57.503170,231.019547 
	C63.302677,231.998047 69.093315,233.029175 74.651970,234.705994 
	C72.651550,235.232941 70.600311,236.340195 68.660919,236.170334 
	C64.119385,235.772598 59.644318,234.214249 55.119320,234.108185 
	C43.624180,233.838791 33.315151,244.272552 32.989021,255.831726 
	C32.700455,266.059692 37.845058,274.550873 41.809242,283.369659 
	C45.887112,292.441315 53.620487,296.841461 63.197239,296.843048 
	C73.176750,296.844696 81.066269,292.115417 84.967506,282.615845 
	C86.795212,278.165344 89.260376,276.973694 93.876465,276.844727 
	C104.993446,276.534180 113.867790,269.241852 113.030144,257.027313 
	C112.900482,255.136658 113.168739,253.218704 113.295006,250.362656 
	C119.958725,253.871277 117.470543,259.103760 117.277473,263.700073 
	C122.261642,264.038269 125.760773,262.297852 127.436867,257.962036 
	C129.457367,252.735291 131.296234,247.415070 132.806030,242.021194 
	C134.118454,237.332443 132.124420,233.209702 128.151703,231.671707 
	C123.706558,229.950806 120.106171,231.425735 117.348038,235.132736 
	C116.275482,236.574265 115.367836,238.138504 114.658920,239.226547 
	C109.118576,240.304886 106.198891,237.163467 103.622574,233.224075 
	C102.949661,232.195145 101.613853,231.553833 100.501282,230.865784 
	C92.945999,226.193420 85.446571,227.131622 77.618698,230.708496 
M416.858246,370.724792 
	C416.038239,368.741272 415.092621,366.799133 414.422211,364.766266 
	C412.569550,359.148651 409.266052,353.461365 409.379547,347.859283 
	C409.605469,336.708313 411.108704,325.476135 413.208527,314.492401 
	C417.676025,291.123871 417.427795,267.437225 419.033295,243.873215 
	C419.229919,240.987152 419.867401,238.131104 420.189087,235.999924 
	C430.353271,235.999924 439.781952,236.001617 449.210632,235.999420 
	C457.251526,235.997543 461.198517,232.265778 462.020508,224.315262 
	C462.919342,215.621658 463.830475,206.916336 465.200378,198.289795 
	C465.893951,193.922134 465.545135,188.908020 470.379669,186.061859 
	C472.918182,184.567398 475.130920,182.525314 477.522614,180.774017 
	C479.924744,179.015045 480.622803,177.468994 478.344788,174.702698 
	C470.690826,165.408066 463.484375,155.744263 455.806000,146.470673 
	C453.253265,143.387573 450.174316,139.653976 446.661591,138.699509 
	C441.003143,137.161972 437.606750,133.903091 434.712738,129.409012 
	C433.299561,127.214424 432.030701,124.893066 430.357330,122.916222 
	C429.674957,122.110077 427.577271,121.367912 427.006531,121.790161 
	C423.901794,124.087128 421.072632,126.756569 418.071686,129.364670 
	C419.069794,130.459885 419.584381,131.119324 420.192383,131.676926 
	C425.756348,136.779663 431.507568,141.621048 431.376678,150.325653 
	C431.340454,152.731262 432.676544,155.529800 434.201843,157.520767 
	C440.119843,165.245651 446.367859,172.717758 452.168854,179.883591 
	C451.368286,182.770691 450.582092,185.237152 450.006256,187.751785 
	C448.279205,195.293869 446.583344,202.843964 444.984039,210.413925 
	C444.393097,213.210938 442.876343,214.375839 440.078369,213.965424 
	C431.444641,212.699020 422.846466,210.975418 414.166565,210.291855 
	C402.556488,209.377563 390.722260,207.130081 379.528351,212.748795 
	C368.329620,218.369919 357.023926,223.791855 345.982239,229.706451 
	C339.719666,233.061081 339.664642,233.291763 337.941010,226.490524 
	C335.880798,218.361389 333.997314,210.169174 331.465820,202.185501 
	C330.207184,198.216064 325.660492,196.847366 321.444702,198.313828 
	C317.393860,199.722916 315.770264,203.047577 316.201721,206.903748 
	C317.611664,219.504852 319.424072,232.060303 320.971741,244.646835 
	C322.032837,253.276642 327.100006,258.164032 335.736816,257.901764 
	C339.801636,257.778320 343.896576,256.864258 347.868286,255.870483 
	C354.010315,254.333664 360.058350,252.421326 366.932861,250.441727 
	C367.739655,259.750183 368.457336,268.030426 369.210876,276.724487 
	C366.574036,276.840973 364.777191,277.030548 362.986908,276.981293 
	C352.202698,276.684692 341.421997,276.213654 330.636230,276.036591 
	C321.311066,275.883484 314.772980,283.997284 316.086273,293.130402 
	C317.352448,301.936066 318.030518,310.825500 319.008118,319.673584 
	C319.985443,328.519135 320.755707,337.398926 322.114624,346.186707 
	C322.953827,351.613617 327.204285,354.244659 333.093109,353.989807 
	C337.761719,353.787689 341.411041,350.614502 341.942200,345.568237 
	C343.117096,334.406769 343.966797,323.211426 345.033630,312.037994 
	C345.222382,310.061523 345.820587,308.124176 346.227356,306.179901 
	C357.869720,308.381775 368.673523,310.425079 379.646118,312.500305 
	C380.102631,322.248230 380.459900,331.835236 381.050751,341.407867 
	C381.251678,344.663849 381.383484,348.175598 382.669952,351.071594 
	C390.113556,367.827301 397.830688,384.463043 405.602295,401.070526 
	C407.543762,405.219360 413.712341,407.177917 418.012970,405.456726 
	C423.189911,403.384735 425.967041,397.819031 424.234833,392.558777 
	C421.913483,385.509430 419.419739,378.516907 416.858246,370.724792 
M184.860306,333.527435 
	C193.248398,354.299805 217.159622,366.148926 239.235229,362.186920 
	C265.801331,357.418976 285.385468,330.197601 278.389679,302.153015 
	C275.533173,290.701874 270.791046,279.716339 266.815033,268.551666 
	C265.302216,264.303680 263.531769,260.147430 261.320740,254.532272 
	C257.892822,258.432983 255.424805,261.241394 252.723282,264.315521 
	C248.249298,241.395248 237.189774,226.454849 225.370667,225.441147 
	C222.196075,237.727127 219.067535,249.834946 215.587936,263.301422 
	C209.800812,256.921387 208.970703,247.630432 200.287415,247.280899 
	C196.295822,257.690277 192.596008,267.903687 188.480621,277.946808 
	C181.142212,295.855347 177.666229,313.967010 184.860306,333.527435 
M84.997314,333.536560 
	C87.849960,325.980194 90.617516,318.390259 93.581596,310.877869 
	C96.046638,304.630249 97.415848,304.043671 103.460609,307.250153 
	C111.916656,311.735748 120.135918,316.667236 128.584244,321.168152 
	C131.739166,322.848999 133.148087,324.847565 133.081818,328.567291 
	C132.862274,340.889008 132.977768,353.217133 133.011002,365.542694 
	C133.028320,371.964539 136.239624,376.108704 141.720230,376.950043 
	C148.227280,377.948944 152.479584,375.436310 154.084579,368.461334 
	C155.329865,363.049530 155.489822,357.375885 155.980072,351.805237 
	C156.762421,342.915558 156.459641,333.801697 158.377136,325.174103 
	C160.634323,315.018188 157.292313,308.635498 149.230255,302.955231 
	C136.168091,293.752045 123.562195,283.901245 110.857574,274.394165 
	C107.507385,276.002808 104.543747,277.898621 101.302856,278.852722 
	C97.869720,279.863434 94.173012,279.978851 90.560303,280.489655 
	C86.036354,291.871521 78.380623,299.023529 65.356445,299.155853 
	C64.242767,299.167114 62.405445,300.787201 62.151993,301.935333 
	C56.476082,327.648224 50.955227,353.395538 45.460709,379.148193 
	C44.511173,383.598663 48.211357,389.436981 52.605465,390.765442 
	C58.432362,392.527069 64.106056,390.364044 65.989273,385.333466 
	C72.346161,368.352509 78.573906,351.323212 84.997314,333.536560 
M262.214355,395.147980 
	C265.980194,396.336639 269.692108,397.766479 273.531738,398.625305 
	C275.907532,399.156677 278.570312,399.263733 280.938477,398.768524 
	C284.462982,398.031433 286.884003,395.546295 286.899048,391.793427 
	C286.918396,386.973969 283.793060,384.290131 279.488342,383.030518 
	C251.074692,374.716278 222.665405,366.384338 194.179153,358.325073 
	C191.136795,357.464355 187.220413,357.445587 184.432053,358.674988 
	C182.355865,359.590393 180.480438,363.057251 180.228287,365.560242 
	C179.759613,370.212555 183.566101,372.721100 187.414001,373.846252 
	C212.037674,381.046417 236.733719,387.998962 262.214355,395.147980 
M68.454811,191.075867 
	C67.300697,202.010437 73.745880,212.531754 87.260185,213.734009 
	C95.855530,214.498657 106.487701,209.848282 108.889214,195.023010 
	C110.530190,184.892776 102.186852,174.774231 89.602043,173.532486 
	C81.001968,172.683914 70.607460,177.356750 68.454811,191.075867 
M365.565582,202.181442 
	C368.938385,202.785431 372.345581,204.039612 375.677155,203.863495 
	C383.596985,203.444778 389.462524,199.351669 392.465118,191.920776 
	C395.558472,184.265411 394.674194,177.010101 389.108459,170.622208 
	C383.487732,164.171188 376.064178,162.349747 368.329529,164.539917 
	C360.305389,166.812088 355.027344,172.740738 354.109955,181.322998 
	C353.145325,190.347717 356.489258,197.544327 365.565582,202.181442 
M210.307297,382.151367 
	C202.476334,379.722687 194.744797,377.026154 186.536255,381.174194 
	C182.165756,383.382721 178.563019,387.991119 179.111984,391.877045 
	C179.791656,396.688141 184.064880,400.919189 189.390900,400.749542 
	C193.227066,400.627350 197.037109,399.060577 200.819656,397.998749 
	C210.803070,395.196259 220.765167,392.317841 230.735748,389.469635 
	C230.732468,389.067841 230.729202,388.666046 230.725922,388.264252 
	C224.162674,386.349213 217.599411,384.434204 210.307297,382.151367 
M284.093048,359.617096 
	C280.584412,355.521149 276.299133,355.261505 271.450256,356.775696 
	C266.262238,358.395813 260.960266,359.647034 255.744995,361.184631 
	C249.061172,363.155151 242.414246,365.250793 235.751404,367.292480 
	C243.430252,370.656647 251.162659,372.668915 258.758240,375.107300 
	C265.451843,377.256165 271.815063,378.866882 278.843140,375.735138 
	C285.621948,372.714478 288.099701,367.192657 284.093048,359.617096 
M140.225449,226.834686 
	C137.479462,228.096909 134.733475,229.359131 132.086990,230.575607 
	C133.900543,234.050446 135.394058,236.912033 136.838379,239.679382 
	C146.953720,235.757874 158.892822,236.894150 166.775467,227.974014 
	C163.564392,218.046997 162.524078,216.475235 156.256104,218.276566 
	C150.779480,219.850464 145.920639,223.574005 140.225449,226.834686 
M204.938446,232.515121 
	C204.778976,233.885284 204.619522,235.255463 204.460052,236.625626 
	C204.882553,237.008087 205.305038,237.390549 205.727539,237.773010 
	C207.787735,236.073715 210.829300,234.771088 211.709061,232.594635 
	C213.696259,227.678391 211.790466,224.673569 206.011597,221.318939 
	C201.915283,224.377151 202.540512,227.964005 204.938446,232.515121 
M246.122574,214.281387 
	C246.409500,213.214371 247.161713,211.997772 246.877716,211.114273 
	C246.415237,209.675476 245.275711,208.454315 244.421890,207.141312 
	C243.622726,208.996994 242.374741,210.798187 242.141174,212.722519 
	C241.866287,214.987228 242.753372,216.889069 246.122574,214.281387 
z"/>
<path fill="#00ffaf9e" opacity="1.000000" stroke="none" 
	d="
M416.929138,371.112396 
	C419.419739,378.516907 421.913483,385.509430 424.234833,392.558777 
	C425.967041,397.819031 423.189911,403.384735 418.012970,405.456726 
	C413.712341,407.177917 407.543762,405.219360 405.602295,401.070526 
	C397.830688,384.463043 390.113556,367.827301 382.669952,351.071594 
	C381.383484,348.175598 381.251678,344.663849 381.050751,341.407867 
	C380.459900,331.835236 380.102631,322.248230 379.646118,312.500305 
	C368.673523,310.425079 357.869720,308.381775 346.227356,306.179901 
	C345.820587,308.124176 345.222382,310.061523 345.033630,312.037994 
	C343.966797,323.211426 343.117096,334.406769 341.942200,345.568237 
	C341.411041,350.614502 337.761719,353.787689 333.093109,353.989807 
	C327.204285,354.244659 322.953827,351.613617 322.114624,346.186707 
	C320.755707,337.398926 319.985443,328.519135 319.008118,319.673584 
	C318.030518,310.825500 317.352448,301.936066 316.086273,293.130402 
	C314.772980,283.997284 321.311066,275.883484 330.636230,276.036591 
	C341.421997,276.213654 352.202698,276.684692 362.986908,276.981293 
	C364.777191,277.030548 366.574036,276.840973 369.210876,276.724487 
	C368.457336,268.030426 367.739655,259.750183 366.932861,250.441727 
	C360.058350,252.421326 354.010315,254.333664 347.868286,255.870483 
	C343.896576,256.864258 339.801636,257.778320 335.736816,257.901764 
	C327.100006,258.164032 322.032837,253.276642 320.971741,244.646835 
	C319.424072,232.060303 317.611664,219.504852 316.201721,206.903748 
	C315.770264,203.047577 317.393860,199.722916 321.444702,198.313828 
	C325.660492,196.847366 330.207184,198.216064 331.465820,202.185501 
	C333.997314,210.169174 335.880798,218.361389 337.941010,226.490524 
	C339.664642,233.291763 339.719666,233.061081 345.982239,229.706451 
	C357.023926,223.791855 368.329620,218.369919 379.528351,212.748795 
	C390.722260,207.130081 402.556488,209.377563 414.166565,210.291855 
	C422.846466,210.975418 431.444641,212.699020 440.078369,213.965424 
	C442.876343,214.375839 444.393097,213.210938 444.984039,210.413925 
	C446.583344,202.843964 448.279205,195.293869 450.006256,187.751785 
	C450.582092,185.237152 451.368286,182.770691 452.168854,179.883591 
	C446.367859,172.717758 440.119843,165.245651 434.201843,157.520767 
	C432.676544,155.529800 431.340454,152.731262 431.376678,150.325653 
	C431.507568,141.621048 425.756348,136.779663 420.192383,131.676926 
	C419.584381,131.119324 419.069794,130.459885 418.071686,129.364670 
	C421.072632,126.756569 423.901794,124.087128 427.006531,121.790161 
	C427.577271,121.367912 429.674957,122.110077 430.357330,122.916222 
	C432.030701,124.893066 433.299561,127.214424 434.712738,129.409012 
	C437.606750,133.903091 441.003143,137.161972 446.661591,138.699509 
	C450.174316,139.653976 453.253265,143.387573 455.806000,146.470673 
	C463.484375,155.744263 470.690826,165.408066 478.344788,174.702698 
	C480.622803,177.468994 479.924744,179.015045 477.522614,180.774017 
	C475.130920,182.525314 472.918182,184.567398 470.379669,186.061859 
	C465.545135,188.908020 465.893951,193.922134 465.200378,198.289795 
	C463.830475,206.916336 462.919342,215.621658 462.020508,224.315262 
	C461.198517,232.265778 457.251526,235.997543 449.210632,235.999420 
	C439.781952,236.001617 430.353271,235.999924 420.189087,235.999924 
	C419.867401,238.131104 419.229919,240.987152 419.033295,243.873215 
	C417.427795,267.437225 417.676025,291.123871 413.208527,314.492401 
	C411.108704,325.476135 409.605469,336.708313 409.379547,347.859283 
	C409.266052,353.461365 412.569550,359.148651 414.422211,364.766266 
	C415.092621,366.799133 416.038239,368.741272 416.929138,371.112396 
M463.865204,168.683167 
	C464.002014,167.722076 464.611664,166.411301 464.200562,165.855408 
	C461.001648,161.529755 457.606140,157.349518 453.898010,152.651199 
	C450.426483,155.380264 447.162109,157.946503 443.581635,160.761230 
	C445.773590,163.474854 447.661346,165.712540 449.441132,168.033051 
	C455.817871,176.347198 455.804047,176.357788 463.865204,168.683167 
z"/>
<path fill="#00ffaf9e" opacity="1.000000" stroke="none" 
	d="
M184.648376,333.201813 
	C177.666229,313.967010 181.142212,295.855347 188.480621,277.946808 
	C192.596008,267.903687 196.295822,257.690277 200.287415,247.280899 
	C208.970703,247.630432 209.800812,256.921387 215.587936,263.301422 
	C219.067535,249.834946 222.196075,237.727127 225.370667,225.441147 
	C237.189774,226.454849 248.249298,241.395248 252.723282,264.315521 
	C255.424805,261.241394 257.892822,258.432983 261.320740,254.532272 
	C263.531769,260.147430 265.302216,264.303680 266.815033,268.551666 
	C270.791046,279.716339 275.533173,290.701874 278.389679,302.153015 
	C285.385468,330.197601 265.801331,357.418976 239.235229,362.186920 
	C217.159622,366.148926 193.248398,354.299805 184.648376,333.201813 
M217.544601,331.031525 
	C226.703461,337.793640 237.815140,335.420807 244.227127,330.243805 
	C251.336609,324.503693 254.513687,313.920044 250.762573,304.034027 
	C247.272141,294.835052 242.641937,286.067261 238.454254,277.137451 
	C238.223877,276.646179 237.449966,276.409790 236.853882,276.003540 
	C232.771912,279.318085 229.559723,282.764496 228.880402,288.223022 
	C228.231598,293.436371 223.299713,295.813263 218.904083,292.792358 
	C214.985153,290.099060 213.392334,291.357300 211.963898,295.028442 
	C211.306747,296.717346 210.292252,298.264191 209.580719,299.935486 
	C204.949692,310.812744 208.403793,325.035339 217.544601,331.031525 
z"/>
<path fill="#00ffaf9e" opacity="1.000000" stroke="none" 
	d="
M84.924171,333.924469 
	C78.573906,351.323212 72.346161,368.352509 65.989273,385.333466 
	C64.106056,390.364044 58.432362,392.527069 52.605465,390.765442 
	C48.211357,389.436981 44.511173,383.598663 45.460709,379.148193 
	C50.955227,353.395538 56.476082,327.648224 62.151993,301.935333 
	C62.405445,300.787201 64.242767,299.167114 65.356445,299.155853 
	C78.380623,299.023529 86.036354,291.871521 90.560303,280.489655 
	C94.173012,279.978851 97.869720,279.863434 101.302856,278.852722 
	C104.543747,277.898621 107.507385,276.002808 110.857574,274.394165 
	C123.562195,283.901245 136.168091,293.752045 149.230255,302.955231 
	C157.292313,308.635498 160.634323,315.018188 158.377136,325.174103 
	C156.459641,333.801697 156.762421,342.915558 155.980072,351.805237 
	C155.489822,357.375885 155.329865,363.049530 154.084579,368.461334 
	C152.479584,375.436310 148.227280,377.948944 141.720230,376.950043 
	C136.239624,376.108704 133.028320,371.964539 133.011002,365.542694 
	C132.977768,353.217133 132.862274,340.889008 133.081818,328.567291 
	C133.148087,324.847565 131.739166,322.848999 128.584244,321.168152 
	C120.135918,316.667236 111.916656,311.735748 103.460609,307.250153 
	C97.415848,304.043671 96.046638,304.630249 93.581596,310.877869 
	C90.617516,318.390259 87.849960,325.980194 84.924171,333.924469 
z"/>
<path fill="#00ffaf9e" opacity="1.000000" stroke="none" 
	d="
M77.997429,231.166656 
	C85.446571,227.131622 92.945999,226.193420 100.501282,230.865784 
	C101.613853,231.553833 102.949661,232.195145 103.622574,233.224075 
	C106.198891,237.163467 109.118576,240.304886 114.658920,239.226547 
	C115.367836,238.138504 116.275482,236.574265 117.348038,235.132736 
	C120.106171,231.425735 123.706558,229.950806 128.151703,231.671707 
	C132.124420,233.209702 134.118454,237.332443 132.806030,242.021194 
	C131.296234,247.415070 129.457367,252.735291 127.436867,257.962036 
	C125.760773,262.297852 122.261642,264.038269 117.277473,263.700073 
	C117.470543,259.103760 119.958725,253.871277 113.295006,250.362656 
	C113.168739,253.218704 112.900482,255.136658 113.030144,257.027313 
	C113.867790,269.241852 104.993446,276.534180 93.876465,276.844727 
	C89.260376,276.973694 86.795212,278.165344 84.967506,282.615845 
	C81.066269,292.115417 73.176750,296.844696 63.197239,296.843048 
	C53.620487,296.841461 45.887112,292.441315 41.809242,283.369659 
	C37.845058,274.550873 32.700455,266.059692 32.989021,255.831726 
	C33.315151,244.272552 43.624180,233.838791 55.119320,234.108185 
	C59.644318,234.214249 64.119385,235.772598 68.660919,236.170334 
	C70.600311,236.340195 72.651550,235.232941 75.047363,234.235382 
	C76.294319,232.898727 77.145874,232.032700 77.997429,231.166656 
M83.518066,249.996002 
	C82.891121,252.068832 81.128250,254.807404 81.872192,256.076813 
	C83.451553,258.771637 86.008240,261.868378 88.769974,262.644287 
	C92.083313,263.575134 95.533287,261.405243 96.686272,257.501434 
	C97.833611,253.616714 96.937263,250.127457 93.349014,248.016663 
	C90.063377,246.083862 86.744041,246.310318 83.518066,249.996002 
z"/>
<path fill="#00ffaf9e" opacity="1.000000" stroke="none" 
	d="
M77.808060,230.937576 
	C77.145874,232.032700 76.294319,232.898727 75.164764,233.904175 
	C69.093315,233.029175 63.302677,231.998047 57.503170,231.019547 
	C56.694153,230.883057 55.719776,230.736176 55.027706,231.049133 
	C47.516666,234.445465 43.991779,228.733810 40.003586,224.410263 
	C35.299381,219.310516 30.993599,213.838623 26.213230,208.815323 
	C22.653389,205.074615 22.093882,201.037079 23.855991,196.517303 
	C28.346289,184.999756 32.885262,173.500351 37.517220,162.039154 
	C40.351517,155.026031 44.814602,152.582916 49.907478,154.984436 
	C54.510166,157.154785 56.058922,160.785782 54.453472,166.055969 
	C51.766266,174.877182 49.099655,183.707596 46.198380,192.459213 
	C45.099907,195.772720 45.070736,197.811066 48.458649,200.210571 
	C58.670513,207.443130 68.004143,216.111740 80.586601,219.208252 
	C86.953888,220.775208 93.533630,221.482605 99.894783,223.069733 
	C106.215218,224.646729 112.027267,227.315430 114.891533,233.970383 
	C112.641602,236.198395 111.123108,236.554733 108.977768,233.645782 
	C101.817429,223.936798 88.593086,222.418884 80.197708,227.976562 
	C79.180832,228.649719 78.470886,229.786560 77.808060,230.937576 
z"/>
<path fill="#00ffaf9e" opacity="1.000000" stroke="none" 
	d="
M261.810181,395.090454 
	C236.733719,387.998962 212.037674,381.046417 187.414001,373.846252 
	C183.566101,372.721100 179.759613,370.212555 180.228287,365.560242 
	C180.480438,363.057251 182.355865,359.590393 184.432053,358.674988 
	C187.220413,357.445587 191.136795,357.464355 194.179153,358.325073 
	C222.665405,366.384338 251.074692,374.716278 279.488342,383.030518 
	C283.793060,384.290131 286.918396,386.973969 286.899048,391.793427 
	C286.884003,395.546295 284.462982,398.031433 280.938477,398.768524 
	C278.570312,399.263733 275.907532,399.156677 273.531738,398.625305 
	C269.692108,397.766479 265.980194,396.336639 261.810181,395.090454 
z"/>
<path fill="#00ffaf9e" opacity="1.000000" stroke="none" 
	d="
M68.642120,190.705246 
	C70.607460,177.356750 81.001968,172.683914 89.602043,173.532486 
	C102.186852,174.774231 110.530190,184.892776 108.889214,195.023010 
	C106.487701,209.848282 95.855530,214.498657 87.260185,213.734009 
	C73.745880,212.531754 67.300697,202.010437 68.642120,190.705246 
z"/>
<path fill="#00ffaf9e" opacity="1.000000" stroke="none" 
	d="
M365.198029,202.057831 
	C356.489258,197.544327 353.145325,190.347717 354.109955,181.322998 
	C355.027344,172.740738 360.305389,166.812088 368.329529,164.539917 
	C376.064178,162.349747 383.487732,164.171188 389.108459,170.622208 
	C394.674194,177.010101 395.558472,184.265411 392.465118,191.920776 
	C389.462524,199.351669 383.596985,203.444778 375.677155,203.863495 
	C372.345581,204.039612 368.938385,202.785431 365.198029,202.057831 
z"/>
<path fill="#00ffaf9e" opacity="1.000000" stroke="none" 
	d="
M210.671722,382.335266 
	C217.599411,384.434204 224.162674,386.349213 230.725922,388.264252 
	C230.729202,388.666046 230.732468,389.067841 230.735748,389.469635 
	C220.765167,392.317841 210.803070,395.196259 200.819656,397.998749 
	C197.037109,399.060577 193.227066,400.627350 189.390900,400.749542 
	C184.064880,400.919189 179.791656,396.688141 179.111984,391.877045 
	C178.563019,387.991119 182.165756,383.382721 186.536255,381.174194 
	C194.744797,377.026154 202.476334,379.722687 210.671722,382.335266 
z"/>
<path fill="#00ffaf9e" opacity="1.000000" stroke="none" 
	d="
M284.382812,359.895142 
	C288.099701,367.192657 285.621948,372.714478 278.843140,375.735138 
	C271.815063,378.866882 265.451843,377.256165 258.758240,375.107300 
	C251.162659,372.668915 243.430252,370.656647 235.751404,367.292480 
	C242.414246,365.250793 249.061172,363.155151 255.744995,361.184631 
	C260.960266,359.647034 266.262238,358.395813 271.450256,356.775696 
	C276.299133,355.261505 280.584412,355.521149 284.382812,359.895142 
z"/>
<path fill="#00ffaf9e" opacity="1.000000" stroke="none" 
	d="
M140.507172,226.591278 
	C145.920639,223.574005 150.779480,219.850464 156.256104,218.276566 
	C162.524078,216.475235 163.564392,218.046997 166.775467,227.974014 
	C158.892822,236.894150 146.953720,235.757874 136.838379,239.679382 
	C135.394058,236.912033 133.900543,234.050446 132.086990,230.575607 
	C134.733475,229.359131 137.479462,228.096909 140.507172,226.591278 
z"/>
<path fill="#00ffaf9e" opacity="1.000000" stroke="none" 
	d="
M204.886765,232.126450 
	C202.540512,227.964005 201.915283,224.377151 206.006683,221.318390 
	C211.790466,224.673569 213.696259,227.678391 211.709061,232.594635 
	C210.829300,234.771088 207.787735,236.073715 205.727539,237.773010 
	C205.305038,237.390549 204.882553,237.008087 204.460052,236.625626 
	C204.619522,235.255463 204.778976,233.885284 204.886765,232.126450 
z"/>
<path fill="#00ffaf9e" opacity="1.000000" stroke="none" 
	d="
M245.859924,214.569412 
	C242.753372,216.889069 241.866287,214.987228 242.141174,212.722519 
	C242.374741,210.798187 243.622726,208.996994 244.421890,207.141312 
	C245.275711,208.454315 246.415237,209.675476 246.877716,211.114273 
	C247.161713,211.997772 246.409500,213.214371 245.859924,214.569412 
z"/>
<path fill="none" opacity="1.000000" stroke="none" 
	d="
M463.612823,168.906235 
	C455.804047,176.357788 455.817871,176.347198 449.441132,168.033051 
	C447.661346,165.712540 445.773590,163.474854 443.581635,160.761230 
	C447.162109,157.946503 450.426483,155.380264 453.898010,152.651199 
	C457.606140,157.349518 461.001648,161.529755 464.200562,165.855408 
	C464.611664,166.411301 464.002014,167.722076 463.612823,168.906235 
z"/>
<path fill="none" opacity="1.000000" stroke="none" 
	d="
M217.262207,330.791809 
	C208.403793,325.035339 204.949692,310.812744 209.580719,299.935486 
	C210.292252,298.264191 211.306747,296.717346 211.963898,295.028442 
	C213.392334,291.357300 214.985153,290.099060 218.904083,292.792358 
	C223.299713,295.813263 228.231598,293.436371 228.880402,288.223022 
	C229.559723,282.764496 232.771912,279.318085 236.853882,276.003540 
	C237.449966,276.409790 238.223877,276.646179 238.454254,277.137451 
	C242.641937,286.067261 247.272141,294.835052 250.762573,304.034027 
	C254.513687,313.920044 251.336609,324.503693 244.227127,330.243805 
	C237.815140,335.420807 226.703461,337.793640 217.262207,330.791809 
z"/>
<path fill="none" opacity="1.000000" stroke="none" 
	d="
M83.785889,249.719208 
	C86.744041,246.310318 90.063377,246.083862 93.349014,248.016663 
	C96.937263,250.127457 97.833611,253.616714 96.686272,257.501434 
	C95.533287,261.405243 92.083313,263.575134 88.769974,262.644287 
	C86.008240,261.868378 83.451553,258.771637 81.872192,256.076813 
	C81.128250,254.807404 82.891121,252.068832 83.785889,249.719208 
z"/>
</svg>